<?xml version="1.0" encoding="UTF-8"?>
<!DOCTYPE svg PUBLIC "-//W3C//DTD SVG 1.1//EN" "http://www.w3.org/Graphics/SVG/1.1/DTD/svg11.dtd">
<svg xmlns="http://www.w3.org/2000/svg" version="1.1" width="1080px" height="1080px" style="shape-rendering:geometricPrecision; text-rendering:geometricPrecision; image-rendering:optimizeQuality; fill-rule:evenodd; clip-rule:evenodd" xmlns:xlink="http://www.w3.org/1999/xlink">
<g><path style="opacity:1" fill="#fdfbfe" d="M -0.5,-0.5 C 23.8333,-0.5 48.1667,-0.5 72.5,-0.5C 48.3577,1.26333 24.0244,1.93 -0.5,1.5C -0.5,0.833333 -0.5,0.166667 -0.5,-0.5 Z"/></g>
<g><path style="opacity:1" fill="#f4f1fb" d="M 72.5,-0.5 C 96.1667,-0.5 119.833,-0.5 143.5,-0.5C 115.44,14.1903 85.4403,23.0236 53.5,26C 35.513,28.1651 17.513,29.9984 -0.5,31.5C -0.5,21.5 -0.5,11.5 -0.5,1.5C 24.0244,1.93 48.3577,1.26333 72.5,-0.5 Z"/></g>
<g><path style="opacity:1" fill="#fdfbfe" d="M 143.5,-0.5 C 156.833,-0.5 170.167,-0.5 183.5,-0.5C 177.81,24.9839 180.143,49.6506 190.5,73.5C 190.783,74.2891 191.283,74.9558 192,75.5C 192.498,72.5184 192.665,69.5184 192.5,66.5C 193.348,57.41 194.848,48.41 197,39.5C 201.277,25.9079 206.11,12.5746 211.5,-0.5C 223.167,-0.5 234.833,-0.5 246.5,-0.5C 238.005,18.7332 235.839,38.7332 240,59.5C 241.667,63.1667 243.333,66.8333 245,70.5C 246.995,43.655 256.495,19.9884 273.5,-0.5C 299.833,-0.5 326.167,-0.5 352.5,-0.5C 307.45,26.9382 280.283,66.6049 271,118.5C 270.681,137.53 269.848,156.53 268.5,175.5C 267.362,178.304 267.195,181.304 268,184.5C 268.513,183.473 269.013,182.473 269.5,181.5C 279.194,160.378 290.194,140.045 302.5,120.5C 313.893,104.272 327.226,89.7717 342.5,77C 375.371,55.568 409.371,36.2347 444.5,19C 455.717,12.2799 467.05,5.77994 478.5,-0.5C 495.833,-0.5 513.167,-0.5 530.5,-0.5C 520.071,6.89128 509.405,14.0579 498.5,21C 440.404,52.2103 384.737,87.2103 331.5,126C 320.647,134.93 309.98,144.097 299.5,153.5C 298.167,154.167 298.167,154.833 299.5,155.5C 358.805,140.563 417.138,122.73 474.5,102C 517.703,84.4811 555.87,59.3145 589,26.5C 594,20.5 599,14.5 604,8.5C 605.856,5.44426 607.689,2.44426 609.5,-0.5C 625.167,-0.5 640.833,-0.5 656.5,-0.5C 633.124,36.3773 603.124,66.8773 566.5,91C 555.536,96.8162 544.869,103.15 534.5,110C 564.489,106.401 593.822,99.7345 622.5,90C 642.249,80.5953 658.749,67.0953 672,49.5C 677.921,39.327 683.587,28.9937 689,18.5C 691.914,12.5138 693.748,6.18051 694.5,-0.5C 704.833,-0.5 715.167,-0.5 725.5,-0.5C 708.386,54.135 674.386,94.9684 623.5,122C 612.425,127.148 600.758,129.482 588.5,129C 599.705,136.252 612.039,139.419 625.5,138.5C 661.613,138.188 692.613,125.522 718.5,100.5C 739.743,79.6797 754.576,55.0131 763,26.5C 765.24,17.6158 766.74,8.61577 767.5,-0.5C 782.5,-0.5 797.5,-0.5 812.5,-0.5C 811.513,1.47344 810.513,3.47344 809.5,5.5C 809.833,5.83333 810.167,6.16667 810.5,6.5C 813.239,4.14919 815.905,1.81586 818.5,-0.5C 878.167,-0.5 937.833,-0.5 997.5,-0.5C 995.369,0.313823 993.036,0.813823 990.5,1C 961.167,1.33333 931.833,1.66667 902.5,2C 867.348,2.46155 838.514,15.9616 816,42.5C 810.405,50.6968 805.071,59.0302 800,67.5C 798.361,70.7423 797.361,74.0757 797,77.5C 799.79,74.0086 802.957,70.842 806.5,68C 835.697,49.3483 867.697,38.015 902.5,34C 933.479,30.4867 964.479,27.1534 995.5,24C 1021.82,19.949 1046.82,11.7824 1070.5,-0.5C 1073.5,-0.5 1076.5,-0.5 1079.5,-0.5C 1079.5,15.1667 1079.5,30.8333 1079.5,46.5C 1068.12,64.3771 1053.29,78.7105 1035,89.5C 1013.98,100.428 992.81,110.928 971.5,121C 958.123,128.019 945.789,136.519 934.5,146.5C 923.366,157.464 913.532,169.464 905,182.5C 884.438,214.633 869.605,249.3 860.5,286.5C 860.667,287.167 860.833,287.833 861,288.5C 876.691,271.471 891.691,253.804 906,235.5C 914.503,227.005 923.669,219.172 933.5,212C 957.648,202.089 981.982,192.422 1006.5,183C 1028.78,170.72 1045.61,153.22 1057,130.5C 1068.83,106.32 1075.83,80.653 1078,53.5C 1078.28,52.5842 1078.78,51.9175 1079.5,51.5C 1079.5,91.8333 1079.5,132.167 1079.5,172.5C 1068.78,181.149 1057.44,188.982 1045.5,196C 1022.89,205.974 1000.23,215.641 977.5,225C 943.651,243.188 915.817,268.021 894,299.5C 886.753,311.137 882.253,323.804 880.5,337.5C 880.833,338.167 881.167,338.833 881.5,339.5C 890.018,324.816 901.684,313.316 916.5,305C 925.116,300.193 934.116,296.193 943.5,293C 967.187,286.461 990.854,279.795 1014.5,273C 1022.69,269.076 1031.02,265.409 1039.5,262C 1054.5,253.485 1067.84,242.985 1079.5,230.5C 1079.5,242.833 1079.5,255.167 1079.5,267.5C 1064.61,278.944 1048.28,287.777 1030.5,294C 1005.53,299.547 980.531,304.88 955.5,310C 920.911,318.924 898.411,340.424 888,374.5C 886.355,379.065 885.688,383.731 886,388.5C 896.267,369.566 911.101,355.4 930.5,346C 935.167,345 939.833,344 944.5,343C 986.368,341.524 1027.04,334.191 1066.5,321C 1068.84,320.163 1070.84,318.829 1072.5,317C 1074.81,316.338 1077.15,315.838 1079.5,315.5C 1079.5,324.833 1079.5,334.167 1079.5,343.5C 1066.25,351.422 1051.92,356.922 1036.5,360C 1013.26,363.25 989.928,365.583 966.5,367C 946.432,368.963 928.098,375.463 911.5,386.5C 907.153,389.848 903.486,393.848 900.5,398.5C 900.667,398.833 900.833,399.167 901,399.5C 905.541,397.242 910.375,396.075 915.5,396C 922.5,395.333 929.5,395.333 936.5,396C 950.66,400.458 964.993,404.458 979.5,408C 1021.32,413.562 1054.66,399.728 1079.5,366.5C 1079.5,385.833 1079.5,405.167 1079.5,424.5C 1060.64,427.552 1042.64,433.385 1025.5,442C 1022.69,443.644 1020.36,445.81 1018.5,448.5C 1038.87,449.091 1059.2,450.091 1079.5,451.5C 1079.5,460.5 1079.5,469.5 1079.5,478.5C 1072.6,474.555 1065.27,471.388 1057.5,469C 1045.48,468.477 1033.48,468.81 1021.5,470C 1029.37,473.88 1036.7,478.547 1043.5,484C 1055.87,497.959 1067.87,512.126 1079.5,526.5C 1079.5,548.5 1079.5,570.5 1079.5,592.5C 1075.23,588.053 1071.06,583.387 1067,578.5C 1069.7,585.931 1072.03,593.597 1074,601.5C 1075.1,613.289 1074.43,624.956 1072,636.5C 1059.69,673.33 1036.86,701.497 1003.5,721C 995.115,724.8 986.782,728.8 978.5,733C 957.539,740.321 937.205,748.988 917.5,759C 903.829,767.005 892.829,777.672 884.5,791C 892.443,786.321 900.777,781.988 909.5,778C 930.938,772.59 952.604,767.924 974.5,764C 1019.27,751.4 1054.27,725.567 1079.5,686.5C 1079.5,706.167 1079.5,725.833 1079.5,745.5C 1056.02,764.826 1029.69,778.659 1000.5,787C 988.556,788.661 976.556,789.661 964.5,790C 1002.42,810.933 1040.75,811.766 1079.5,792.5C 1079.5,806.5 1079.5,820.5 1079.5,834.5C 1054.39,840.174 1029.39,839.674 1004.5,833C 989.04,828.18 973.707,823.18 958.5,818C 930.291,813.65 902.624,815.984 875.5,825C 861.415,830.589 849.415,839.089 839.5,850.5C 831.983,859.518 824.649,868.684 817.5,878C 815.723,880.785 814.39,883.785 813.5,887C 813.85,888.257 814.517,888.591 815.5,888C 837.846,872.65 862.179,861.317 888.5,854C 916.167,853.333 943.833,853.333 971.5,854C 990.923,858.343 1010.59,860.843 1030.5,861.5C 1040.59,861.182 1050.59,860.015 1060.5,858C 1066.76,855.526 1073.09,853.359 1079.5,851.5C 1079.5,867.5 1079.5,883.5 1079.5,899.5C 1050.5,917.056 1018.5,926.556 983.5,928C 955.167,928.333 926.833,928.667 898.5,929C 848.653,932.572 814.819,957.406 797,1003.5C 804.749,995.746 813.583,989.579 823.5,985C 845.475,973.354 868.808,965.687 893.5,962C 923.435,958.14 953.435,954.806 983.5,952C 1011.75,949.025 1038.75,941.692 1064.5,930C 1069.63,927.035 1074.63,923.869 1079.5,920.5C 1079.5,938.167 1079.5,955.833 1079.5,973.5C 1075.3,980.217 1070.46,986.551 1065,992.5C 1049.13,1007.52 1031.29,1019.69 1011.5,1029C 987.178,1038.99 964.178,1051.33 942.5,1066C 938.197,1069.73 934.03,1073.56 930,1077.5C 929.536,1078.09 929.369,1078.76 929.5,1079.5C 916.5,1079.5 903.5,1079.5 890.5,1079.5C 902.332,1064.17 915.998,1050.67 931.5,1039C 968.161,1016.34 1004.83,993.676 1041.5,971C 1016.05,972.355 990.714,975.022 965.5,979C 913.115,992.713 874.282,1023.55 849,1071.5C 847.864,1074.1 847.031,1076.76 846.5,1079.5C 832.833,1079.5 819.167,1079.5 805.5,1079.5C 810.351,1065.8 817.184,1053.13 826,1041.5C 841.763,1024.06 859.596,1009.23 879.5,997C 853.683,1003.16 829.683,1013.49 807.5,1028C 790.342,1041.97 777.675,1059.14 769.5,1079.5C 760.167,1079.5 750.833,1079.5 741.5,1079.5C 742.777,1077.05 744.277,1074.72 746,1072.5C 753.032,1064.3 760.532,1056.64 768.5,1049.5C 770.01,1048.16 771.677,1047 773.5,1046C 770.65,1045.99 768.317,1047.16 766.5,1049.5C 750.352,1058.33 735.018,1068.33 720.5,1079.5C 716.833,1079.5 713.167,1079.5 709.5,1079.5C 709.611,1078.88 709.944,1078.38 710.5,1078C 706.833,1077.83 703.167,1077.67 699.5,1077.5C 694.233,1077.29 689.233,1077.95 684.5,1079.5C 641.167,1079.5 597.833,1079.5 554.5,1079.5C 556.318,1072.24 557.484,1064.91 558,1057.5C 552.006,1065.66 545.173,1072.99 537.5,1079.5C 461.833,1079.5 386.167,1079.5 310.5,1079.5C 359.177,1066.33 407.51,1051.83 455.5,1036C 497.839,1021.33 536.172,999.666 570.5,971C 590.805,952.843 607.638,932.01 621,908.5C 629.768,890.775 635.768,872.108 639,852.5C 642.795,827.981 644.795,803.315 645,778.5C 618.463,846.321 574.297,899.821 512.5,939C 466.143,964.99 420.477,992.323 375.5,1021C 348.982,1038.59 323.982,1058.09 300.5,1079.5C 295.167,1079.5 289.833,1079.5 284.5,1079.5C 298.179,1048.63 318.512,1022.8 345.5,1002C 361.463,992.004 377.463,982.004 393.5,972C 424.437,956.036 455.104,939.702 485.5,923C 519.045,902.925 549.545,879.758 577,853.5C 598.972,829.696 615.806,802.696 627.5,772.5C 627.167,772.167 626.833,771.833 626.5,771.5C 599.608,812.904 563.941,844.071 519.5,865C 489.189,877.326 458.189,887.659 426.5,896C 408.102,901.907 390.102,908.573 372.5,916C 303.753,948.624 269.42,1003.12 269.5,1079.5C 259.5,1079.5 249.5,1079.5 239.5,1079.5C 237.246,1058.48 231.58,1038.48 222.5,1019.5C 222.539,1018.24 222.039,1017.24 221,1016.5C 220.185,1021.35 220.352,1026.02 221.5,1030.5C 222.237,1047.03 220.904,1063.36 217.5,1079.5C 207.833,1079.5 198.167,1079.5 188.5,1079.5C 188.832,1069.81 188.498,1060.14 187.5,1050.5C 181.752,1060.33 175.752,1070 169.5,1079.5C 151.833,1079.5 134.167,1079.5 116.5,1079.5C 137.357,1047.93 149.024,1013.26 151.5,975.5C 143.397,987.771 133.397,998.271 121.5,1007C 114.833,1011.33 108.167,1015.67 101.5,1020C 77.6615,1031.41 53.9948,1043.41 30.5,1056C 19.4623,1061.88 10.129,1069.71 2.5,1079.5C 1.5,1079.5 0.5,1079.5 -0.5,1079.5C -0.5,1067.17 -0.5,1054.83 -0.5,1042.5C 4.23568,1039.94 8.56901,1036.77 12.5,1033C 47.0533,1013.06 81.0533,992.393 114.5,971C 91.1805,973.065 67.8472,975.399 44.5,978C 28.6926,980.908 13.6926,986.074 -0.5,993.5C -0.5,981.5 -0.5,969.5 -0.5,957.5C 35.1791,955.812 70.3458,950.812 105,942.5C 122.295,937.157 138.462,929.657 153.5,920C 167.137,908.775 173.637,894.275 173,876.5C 167.069,886.598 159.236,894.931 149.5,901.5C 123.111,916.088 94.7775,924.588 64.5,927C 42.8565,928.333 21.1899,928.833 -0.5,928.5C -0.5,922.167 -0.5,915.833 -0.5,909.5C 15.8367,909.667 32.1701,909.5 48.5,909C 70.7129,907.512 90.3795,899.846 107.5,886C 110.538,883.297 113.205,880.297 115.5,877C 108.408,879.678 101.074,882.011 93.5,884C 77.5567,886.892 61.5567,887.225 45.5,885C 30.1978,881.319 14.8644,878.152 -0.5,875.5C -0.5,868.167 -0.5,860.833 -0.5,853.5C 14.837,853.333 30.1703,853.5 45.5,854C 73.218,860.396 101.218,862.063 129.5,859C 147.838,854.583 163.338,845.416 176,831.5C 178.293,827.748 180.46,823.914 182.5,820C 173.038,825.398 163.038,830.065 152.5,834C 130.291,839.638 107.957,839.971 85.5,835C 64.3657,828.106 43.0323,821.772 21.5,816C 14.1742,815.5 6.8409,815.334 -0.5,815.5C -0.5,801.5 -0.5,787.5 -0.5,773.5C 22.3151,770.408 44.6484,765.241 66.5,758C 94.4419,746.949 118.275,730.116 138,707.5C 155.538,686.561 165.038,662.395 166.5,635C 167.165,620.426 163.332,607.259 155,595.5C 150,589.833 145,584.167 140,578.5C 143.26,586.843 145.927,595.51 148,604.5C 148.266,632.702 139.932,658.036 123,680.5C 109.583,697.587 93.4159,711.42 74.5,722C 49.8424,733.321 24.8424,744.155 -0.5,754.5C -0.5,743.5 -0.5,732.5 -0.5,721.5C 26.595,711.785 51.9283,698.619 75.5,682C 120.023,644.759 132.523,598.592 113,543.5C 111.855,541.074 110.522,538.741 109,536.5C 110.309,549.314 109.309,561.98 106,574.5C 89.8607,619.904 60.694,654.404 18.5,678C 12.1705,680.608 5.83721,683.108 -0.5,685.5C -0.5,674.167 -0.5,662.833 -0.5,651.5C 37.2628,630.887 62.4294,599.887 75,558.5C 81.6317,528.936 79.2984,500.269 68,472.5C 58.4191,452.921 43.5858,438.754 23.5,430C 18.622,428.194 13.622,427.527 8.5,428C 48.3037,472.254 56.8037,522.087 34,577.5C 24.6339,596.017 13.1339,613.017 -0.5,628.5C -0.5,611.167 -0.5,593.833 -0.5,576.5C 18.3886,549.942 25.5553,520.275 21,487.5C 16.9687,472.991 9.80202,460.324 -0.5,449.5C -0.5,431.5 -0.5,413.5 -0.5,395.5C 3.51383,395.334 7.51383,395.501 11.5,396C 34.174,405.391 57.8407,409.724 82.5,409C 124.931,401.887 152.264,377.887 164.5,337C 164.333,336.167 164.167,335.333 164,334.5C 156.403,341.383 147.903,346.883 138.5,351C 119.893,358.189 100.559,362.522 80.5,364C 59.2181,364.294 38.2181,366.628 17.5,371C 11.3555,372.912 5.35548,375.079 -0.5,377.5C -0.5,367.5 -0.5,357.5 -0.5,347.5C 15.429,342.747 31.7623,340.581 48.5,341C 76.7448,338.108 104.411,332.442 131.5,324C 214.533,293.123 250.366,233.623 239,145.5C 235.201,127.271 229.701,109.604 222.5,92.5C 222.013,91.5266 221.513,90.5266 221,89.5C 220.185,94.3522 220.352,99.0189 221.5,103.5C 223.587,156.398 208.42,203.398 176,244.5C 154.631,269.6 128.131,286.767 96.5,296C 73.9096,300.918 51.2429,305.585 28.5,310C 18.0896,312.612 8.4229,316.779 -0.5,322.5C -0.5,314.833 -0.5,307.167 -0.5,299.5C 9.29222,295.44 19.2922,291.94 29.5,289C 48.5843,283.957 67.5843,278.624 86.5,273C 130.657,258.177 161.824,229.344 180,186.5C 181.815,181.237 183.315,175.903 184.5,170.5C 185.738,168.786 186.405,166.786 186.5,164.5C 188.456,150.575 188.956,136.575 188,122.5C 170.16,158.338 142.993,184.838 106.5,202C 85.7946,209.683 65.4612,218.35 45.5,228C 29.2311,237.623 13.8977,248.457 -0.5,260.5C -0.5,246.167 -0.5,231.833 -0.5,217.5C 5.50557,213.162 11.8389,209.329 18.5,206C 39.7627,199.693 60.4293,192.027 80.5,183C 108.985,165.871 128.485,141.705 139,110.5C 145.021,91.8965 149.187,72.8965 151.5,53.5C 152.629,51.3718 152.796,49.0385 152,46.5C 151.487,47.5266 150.987,48.5266 150.5,49.5C 141.026,63.8068 129.026,75.6401 114.5,85C 92.669,98.2491 70.0023,109.916 46.5,120C 34.5189,126.324 23.1856,133.658 12.5,142C 8.32434,146.343 3.991,150.509 -0.5,154.5C -0.5,141.5 -0.5,128.5 -0.5,115.5C 37.428,92.5298 75.0946,69.0298 112.5,45C 89.0989,46.3776 65.7656,48.7109 42.5,52C 27.3627,54.7676 13.0294,59.6009 -0.5,66.5C -0.5,54.8333 -0.5,43.1667 -0.5,31.5C 17.513,29.9984 35.513,28.1651 53.5,26C 85.4403,23.0236 115.44,14.1903 143.5,-0.5 Z"/></g>
<g><path style="opacity:1" fill="#f4f1fb" d="M 183.5,-0.5 C 192.833,-0.5 202.167,-0.5 211.5,-0.5C 206.11,12.5746 201.277,25.9079 197,39.5C 194.848,48.41 193.348,57.41 192.5,66.5C 191.833,68.8333 191.167,71.1667 190.5,73.5C 180.143,49.6506 177.81,24.9839 183.5,-0.5 Z"/></g>
<g><path style="opacity:1" fill="#f4f1fb" d="M 246.5,-0.5 C 255.5,-0.5 264.5,-0.5 273.5,-0.5C 256.495,19.9884 246.995,43.655 245,70.5C 243.333,66.8333 241.667,63.1667 240,59.5C 235.839,38.7332 238.005,18.7332 246.5,-0.5 Z"/></g>
<g><path style="opacity:1" fill="#f4f1fb" d="M 352.5,-0.5 C 394.5,-0.5 436.5,-0.5 478.5,-0.5C 467.05,5.77994 455.717,12.2799 444.5,19C 409.371,36.2347 375.371,55.568 342.5,77C 327.226,89.7717 313.893,104.272 302.5,120.5C 290.194,140.045 279.194,160.378 269.5,181.5C 268.539,179.735 268.205,177.735 268.5,175.5C 269.848,156.53 270.681,137.53 271,118.5C 280.283,66.6049 307.45,26.9382 352.5,-0.5 Z"/></g>
<g><path style="opacity:1" fill="#f4f1fb" d="M 530.5,-0.5 C 556.833,-0.5 583.167,-0.5 609.5,-0.5C 607.689,2.44426 605.856,5.44426 604,8.5C 599,14.5 594,20.5 589,26.5C 555.87,59.3145 517.703,84.4811 474.5,102C 417.138,122.73 358.805,140.563 299.5,155.5C 298.167,154.833 298.167,154.167 299.5,153.5C 309.98,144.097 320.647,134.93 331.5,126C 384.737,87.2103 440.404,52.2103 498.5,21C 509.405,14.0579 520.071,6.89128 530.5,-0.5 Z"/></g>
<g><path style="opacity:1" fill="#f4f1fb" d="M 656.5,-0.5 C 669.167,-0.5 681.833,-0.5 694.5,-0.5C 693.748,6.18051 691.914,12.5138 689,18.5C 683.587,28.9937 677.921,39.327 672,49.5C 658.749,67.0953 642.249,80.5953 622.5,90C 593.822,99.7345 564.489,106.401 534.5,110C 544.869,103.15 555.536,96.8162 566.5,91C 603.124,66.8773 633.124,36.3773 656.5,-0.5 Z"/></g>
<g><path style="opacity:1" fill="#f4f1fb" d="M 725.5,-0.5 C 739.5,-0.5 753.5,-0.5 767.5,-0.5C 766.74,8.61577 765.24,17.6158 763,26.5C 754.576,55.0131 739.743,79.6797 718.5,100.5C 692.613,125.522 661.613,138.188 625.5,138.5C 612.039,139.419 599.705,136.252 588.5,129C 600.758,129.482 612.425,127.148 623.5,122C 674.386,94.9684 708.386,54.135 725.5,-0.5 Z"/></g>
<g><path style="opacity:1" fill="#f5f2fb" d="M 812.5,-0.5 C 814.5,-0.5 816.5,-0.5 818.5,-0.5C 815.905,1.81586 813.239,4.14919 810.5,6.5C 810.167,6.16667 809.833,5.83333 809.5,5.5C 810.513,3.47344 811.513,1.47344 812.5,-0.5 Z"/></g>
<g><path style="opacity:1" fill="#f4f1fb" d="M 997.5,-0.5 C 1021.83,-0.5 1046.17,-0.5 1070.5,-0.5C 1046.82,11.7824 1021.82,19.949 995.5,24C 964.479,27.1534 933.479,30.4867 902.5,34C 867.697,38.015 835.697,49.3483 806.5,68C 802.957,70.842 799.79,74.0086 797,77.5C 797.361,74.0757 798.361,70.7423 800,67.5C 805.071,59.0302 810.405,50.6968 816,42.5C 838.514,15.9616 867.348,2.46155 902.5,2C 931.833,1.66667 961.167,1.33333 990.5,1C 993.036,0.813823 995.369,0.313823 997.5,-0.5 Z"/></g>
<g><path style="opacity:1" fill="#f4f1fb" d="M -0.5,115.5 C -0.5,99.1667 -0.5,82.8333 -0.5,66.5C 13.0294,59.6009 27.3627,54.7676 42.5,52C 65.7656,48.7109 89.0989,46.3776 112.5,45C 75.0946,69.0298 37.428,92.5298 -0.5,115.5 Z"/></g>
<g><path style="opacity:1" fill="#f4f1fb" d="M 1036.5,43.5 C 1038.29,43.2148 1039.95,43.5481 1041.5,44.5C 1004.51,67.3296 967.509,90.163 930.5,113C 890.303,143.546 864.136,183.38 852,232.5C 847.249,250.012 843.249,267.678 840,285.5C 823.419,229.21 830.085,175.876 860,125.5C 887.885,85.9853 925.385,61.152 972.5,51C 994.047,48.8749 1015.38,46.3749 1036.5,43.5 Z"/></g>
<g><path style="opacity:1" fill="#f7f5fb" d="M 151.5,53.5 C 151.768,51.901 151.434,50.5676 150.5,49.5C 150.987,48.5266 151.487,47.5266 152,46.5C 152.796,49.0385 152.629,51.3718 151.5,53.5 Z"/></g>
<g><path style="opacity:1" fill="#f4f1fb" d="M 150.5,49.5 C 151.434,50.5676 151.768,51.901 151.5,53.5C 149.187,72.8965 145.021,91.8965 139,110.5C 128.485,141.705 108.985,165.871 80.5,183C 60.4293,192.027 39.7627,199.693 18.5,206C 11.8389,209.329 5.50557,213.162 -0.5,217.5C -0.5,196.5 -0.5,175.5 -0.5,154.5C 3.991,150.509 8.32434,146.343 12.5,142C 23.1856,133.658 34.5189,126.324 46.5,120C 70.0023,109.916 92.669,98.2491 114.5,85C 129.026,75.6401 141.026,63.8068 150.5,49.5 Z"/></g>
<g><path style="opacity:1" fill="#f4f1fb" d="M 1079.5,46.5 C 1079.5,48.1667 1079.5,49.8333 1079.5,51.5C 1078.78,51.9175 1078.28,52.5842 1078,53.5C 1075.83,80.653 1068.83,106.32 1057,130.5C 1045.61,153.22 1028.78,170.72 1006.5,183C 981.982,192.422 957.648,202.089 933.5,212C 923.669,219.172 914.503,227.005 906,235.5C 891.691,253.804 876.691,271.471 861,288.5C 860.833,287.833 860.667,287.167 860.5,286.5C 869.605,249.3 884.438,214.633 905,182.5C 913.532,169.464 923.366,157.464 934.5,146.5C 945.789,136.519 958.123,128.019 971.5,121C 992.81,110.928 1013.98,100.428 1035,89.5C 1053.29,78.7105 1068.12,64.3771 1079.5,46.5 Z"/></g>
<g><path style="opacity:1" fill="#f9f6fc" d="M 192.5,66.5 C 192.665,69.5184 192.498,72.5184 192,75.5C 191.283,74.9558 190.783,74.2891 190.5,73.5C 191.167,71.1667 191.833,68.8333 192.5,66.5 Z"/></g>
<g><path style="opacity:1" fill="#f4f1fb" d="M 668.5,330.5 C 668.5,329.833 668.5,329.167 668.5,328.5C 672.131,325.371 675.631,322.037 679,318.5C 694.574,299.009 708.908,278.676 722,257.5C 739.209,224.075 754.543,189.742 768,154.5C 779.729,126.434 798.896,104.934 825.5,90C 842.984,81.7302 860.984,75.0635 879.5,70C 860.464,81.9301 843.297,96.0968 828,112.5C 816.716,126.405 808.05,141.739 802,158.5C 795.192,180.758 787.859,202.758 780,224.5C 756.988,274.677 719.822,310.011 668.5,330.5 Z"/></g>
<g><path style="opacity:1" fill="#faf7fd" d="M 222.5,92.5 C 221.518,95.9619 221.185,99.6286 221.5,103.5C 220.352,99.0189 220.185,94.3522 221,89.5C 221.513,90.5266 222.013,91.5266 222.5,92.5 Z"/></g>
<g><path style="opacity:1" fill="#f4f1fb" d="M 222.5,92.5 C 229.701,109.604 235.201,127.271 239,145.5C 250.366,233.623 214.533,293.123 131.5,324C 104.411,332.442 76.7448,338.108 48.5,341C 31.7623,340.581 15.429,342.747 -0.5,347.5C -0.5,339.167 -0.5,330.833 -0.5,322.5C 8.4229,316.779 18.0896,312.612 28.5,310C 51.2429,305.585 73.9096,300.918 96.5,296C 128.131,286.767 154.631,269.6 176,244.5C 208.42,203.398 223.587,156.398 221.5,103.5C 221.185,99.6286 221.518,95.9619 222.5,92.5 Z"/></g>
<g><path style="opacity:1" fill="#f4f1fb" d="M 186.5,164.5 C 184.72,165.99 184.054,167.99 184.5,170.5C 183.315,175.903 181.815,181.237 180,186.5C 161.824,229.344 130.657,258.177 86.5,273C 67.5843,278.624 48.5843,283.957 29.5,289C 19.2922,291.94 9.29222,295.44 -0.5,299.5C -0.5,286.5 -0.5,273.5 -0.5,260.5C 13.8977,248.457 29.2311,237.623 45.5,228C 65.4612,218.35 85.7946,209.683 106.5,202C 142.993,184.838 170.16,158.338 188,122.5C 188.956,136.575 188.456,150.575 186.5,164.5 Z"/></g>
<g><path style="opacity:1" fill="#f4f1fb" d="M 769.5,119.5 C 770.525,119.897 770.692,120.563 770,121.5C 755.51,133.989 743.177,148.322 733,164.5C 716.15,200.05 700.15,236.05 685,272.5C 673.129,295.23 659.462,316.897 644,337.5C 635.498,347.147 625.664,354.981 614.5,361C 610.554,362.324 606.554,362.991 602.5,363C 611.691,353.481 618.858,342.648 624,330.5C 635.673,297.153 648.339,264.153 662,231.5C 673.733,204.748 689.899,180.915 710.5,160C 716.5,155.333 722.5,150.667 728.5,146C 742.326,137.248 755.993,128.415 769.5,119.5 Z"/></g>
<g><path style="opacity:1" fill="#f7f4fb" d="M 557.5,135.5 C 557.158,134.662 556.492,134.328 555.5,134.5C 558.28,129.325 558.946,129.659 557.5,135.5 Z"/></g>
<g><path style="opacity:1" fill="#f4f1fb" d="M 555.5,134.5 C 556.492,134.328 557.158,134.662 557.5,135.5C 554.996,165.91 541.996,190.744 518.5,210C 505.952,219.103 492.952,227.436 479.5,235C 451.747,247.407 424.413,260.74 397.5,275C 362.282,296.549 336.782,326.383 321,364.5C 315.709,380.474 314.209,396.808 316.5,413.5C 316.203,417.767 316.536,421.934 317.5,426C 316.956,426.717 316.289,427.217 315.5,427.5C 297.668,399.172 293.501,368.839 303,336.5C 310.561,313.97 321.895,293.637 337,275.5C 370.805,237.854 411.305,210.02 458.5,192C 496.584,182.378 528.917,163.211 555.5,134.5 Z"/></g>
<g><path style="opacity:1" fill="#f6f4fc" d="M 690.5,151.5 C 696.987,150.346 703.654,150.179 710.5,151C 709.307,152.095 707.973,152.928 706.5,153.5C 701.604,151.554 696.271,150.887 690.5,151.5 Z"/></g>
<g><path style="opacity:1" fill="#f4f1fb" d="M 690.5,151.5 C 696.271,150.887 701.604,151.554 706.5,153.5C 686.415,162.756 670.581,176.756 659,195.5C 637.18,236.14 616.68,277.473 597.5,319.5C 589.824,333.01 579.824,344.51 567.5,354C 544.404,367.818 521.404,367.818 498.5,354C 493.751,349.922 489.751,345.255 486.5,340C 518.099,343.861 544.433,334.027 565.5,310.5C 570.578,303.348 575.412,296.014 580,288.5C 593.429,256.976 608.429,226.309 625,196.5C 633.747,182.418 644.914,170.585 658.5,161C 668.509,155.664 679.176,152.497 690.5,151.5 Z"/></g>
<g><path style="opacity:1" fill="#f6f4fb" d="M 474.5,157.5 C 481.655,156.345 488.988,156.178 496.5,157C 491.487,157.836 486.487,158.669 481.5,159.5C 481.611,158.883 481.944,158.383 482.5,158C 479.854,157.503 477.187,157.336 474.5,157.5 Z"/></g>
<g><path style="opacity:1" fill="#f4f1fb" d="M 474.5,157.5 C 477.187,157.336 479.854,157.503 482.5,158C 481.944,158.383 481.611,158.883 481.5,159.5C 473.729,160.888 466.063,162.721 458.5,165C 441.833,171.667 425.167,178.333 408.5,185C 393.641,193.182 378.641,201.182 363.5,209C 285.918,259.064 260.085,328.564 286,417.5C 272.802,405.979 261.468,392.979 252,378.5C 245.084,367.19 241.084,354.856 240,341.5C 234.852,283.188 256.019,237.354 303.5,204C 332.745,184.383 364.745,171.383 399.5,165C 424.359,160.923 449.359,158.423 474.5,157.5 Z"/></g>
<g><path style="opacity:1" fill="#f7f4fa" d="M 186.5,164.5 C 186.405,166.786 185.738,168.786 184.5,170.5C 184.054,167.99 184.72,165.99 186.5,164.5 Z"/></g>
<g><path style="opacity:1" fill="#f4f1fb" d="M 1079.5,172.5 C 1079.5,191.833 1079.5,211.167 1079.5,230.5C 1067.84,242.985 1054.5,253.485 1039.5,262C 1031.02,265.409 1022.69,269.076 1014.5,273C 990.854,279.795 967.187,286.461 943.5,293C 934.116,296.193 925.116,300.193 916.5,305C 901.684,313.316 890.018,324.816 881.5,339.5C 881.167,338.833 880.833,338.167 880.5,337.5C 882.253,323.804 886.753,311.137 894,299.5C 915.817,268.021 943.651,243.188 977.5,225C 1000.23,215.641 1022.89,205.974 1045.5,196C 1057.44,188.982 1068.78,181.149 1079.5,172.5 Z"/></g>
<g><path style="opacity:1" fill="#f9f6fc" d="M 268.5,175.5 C 268.205,177.735 268.539,179.735 269.5,181.5C 269.013,182.473 268.513,183.473 268,184.5C 267.195,181.304 267.362,178.304 268.5,175.5 Z"/></g>
<g><path style="opacity:1" fill="#f4f1fb" d="M 541.5,226.5 C 542.497,226.47 543.164,226.97 543.5,228C 534.949,261.777 516.282,288.444 487.5,308C 462.305,323.092 437.638,338.926 413.5,355.5C 400.787,365.381 389.953,377.048 381,390.5C 372.446,407.621 370.113,425.621 374,444.5C 377.509,454.361 381.009,464.194 384.5,474C 361.803,459.535 347.97,438.701 343,411.5C 338.732,386.673 343.732,364.006 358,343.5C 372.664,325.503 389.83,310.336 409.5,298C 421.039,291.398 432.705,285.065 444.5,279C 471.738,268.214 498.071,255.548 523.5,241C 529.753,236.387 535.753,231.554 541.5,226.5 Z"/></g>
<g><path style="opacity:1" fill="#f4f1fb" d="M 1079.5,267.5 C 1079.5,283.5 1079.5,299.5 1079.5,315.5C 1077.15,315.838 1074.81,316.338 1072.5,317C 1070.84,318.829 1068.84,320.163 1066.5,321C 1027.04,334.191 986.368,341.524 944.5,343C 939.833,344 935.167,345 930.5,346C 911.101,355.4 896.267,369.566 886,388.5C 885.688,383.731 886.355,379.065 888,374.5C 898.411,340.424 920.911,318.924 955.5,310C 980.531,304.88 1005.53,299.547 1030.5,294C 1048.28,287.777 1064.61,278.944 1079.5,267.5 Z"/></g>
<g><path style="opacity:1" fill="#f4f1fb" d="M 776.5,320.5 C 808.562,318.718 837.229,327.552 862.5,347C 806.671,338.708 756.337,351.208 711.5,384.5C 685.294,406.871 658.627,428.704 631.5,450C 583.771,484.133 531.437,493.133 474.5,477C 452.698,469.529 435.198,456.363 422,437.5C 414.912,424.062 411.912,409.729 413,394.5C 414.978,397.645 417.478,400.312 420.5,402.5C 433.183,412.512 446.849,421.012 461.5,428C 481.011,434.213 501.011,436.213 521.5,434C 531.231,432.323 540.897,430.323 550.5,428C 574.663,420.064 597.997,410.398 620.5,399C 655.144,378.343 689.81,357.676 724.5,337C 733.455,333.345 742.455,329.679 751.5,326C 759.869,323.696 768.202,321.862 776.5,320.5 Z"/></g>
<g><path style="opacity:1" fill="#f7f5fb" d="M 668.5,328.5 C 668.5,329.167 668.5,329.833 668.5,330.5C 667.201,332.099 665.535,332.599 663.5,332C 665.196,330.824 666.862,329.657 668.5,328.5 Z"/></g>
<g><path style="opacity:1" fill="#f4f1fb" d="M -0.5,395.5 C -0.5,389.5 -0.5,383.5 -0.5,377.5C 5.35548,375.079 11.3555,372.912 17.5,371C 38.2181,366.628 59.2181,364.294 80.5,364C 100.559,362.522 119.893,358.189 138.5,351C 147.903,346.883 156.403,341.383 164,334.5C 164.167,335.333 164.333,336.167 164.5,337C 152.264,377.887 124.931,401.887 82.5,409C 57.8407,409.724 34.174,405.391 11.5,396C 7.51383,395.501 3.51383,395.334 -0.5,395.5 Z"/></g>
<g><path style="opacity:1" fill="#f4f1fb" d="M 1079.5,343.5 C 1079.5,351.167 1079.5,358.833 1079.5,366.5C 1054.66,399.728 1021.32,413.562 979.5,408C 964.993,404.458 950.66,400.458 936.5,396C 929.5,395.333 922.5,395.333 915.5,396C 910.375,396.075 905.541,397.242 901,399.5C 900.833,399.167 900.667,398.833 900.5,398.5C 903.486,393.848 907.153,389.848 911.5,386.5C 928.098,375.463 946.432,368.963 966.5,367C 989.928,365.583 1013.26,363.25 1036.5,360C 1051.92,356.922 1066.25,351.422 1079.5,343.5 Z"/></g>
<g><path style="opacity:1" fill="#f4f1fb" d="M 863.5,364.5 C 864.833,365.167 866.167,365.833 867.5,366.5C 843.68,374.355 822.014,386.022 802.5,401.5C 777.885,425.951 751.885,448.784 724.5,470C 691.4,494.033 654.734,509.699 614.5,517C 588.025,520.816 561.691,520.149 535.5,515C 529.373,513.125 523.373,510.958 517.5,508.5C 517.5,507.167 518.167,506.5 519.5,506.5C 558.275,513.609 594.275,506.776 627.5,486C 643.521,475.303 659.521,464.636 675.5,454C 690.75,442.42 705.083,429.753 718.5,416C 739.239,398.63 761.906,384.296 786.5,373C 811.281,363.749 836.948,360.916 863.5,364.5 Z"/></g>
<g><path style="opacity:1" fill="#f7f4fb" d="M 863.5,364.5 C 865.857,364.337 868.19,364.503 870.5,365C 869.756,366.039 868.756,366.539 867.5,366.5C 866.167,365.833 864.833,365.167 863.5,364.5 Z"/></g>
<g><path style="opacity:1" fill="#f4f1fb" d="M 872.5,404.5 C 873.873,404.343 875.207,404.51 876.5,405C 869.338,411.163 862.504,417.663 856,424.5C 840.66,449.853 824.327,474.52 807,498.5C 767.71,547.071 716.877,575.238 654.5,583C 607.909,589.067 563.576,582.067 521.5,562C 488.484,546.343 459.317,525.177 434,498.5C 426.587,489.588 419.754,480.254 413.5,470.5C 414.002,469.479 414.668,469.312 415.5,470C 448.33,498.425 484.997,520.758 525.5,537C 559.344,548.723 594.01,551.723 629.5,546C 672.618,537.604 711.285,519.771 745.5,492.5C 767.722,472.108 790.389,452.274 813.5,433C 831.416,419.707 851.083,410.207 872.5,404.5 Z"/></g>
<g><path style="opacity:1" fill="#f4f1fb" d="M 166.5,420.5 C 189.876,418.405 211.543,423.238 231.5,435C 250.942,448.422 269.275,463.422 286.5,480C 301.076,491.024 317.576,496.19 336,495.5C 345.091,495.95 353.758,494.283 362,490.5C 362.167,490.833 362.333,491.167 362.5,491.5C 337.522,523.679 305.189,534.179 265.5,523C 258.286,519.709 251.286,516.042 244.5,512C 231.502,500.002 218.836,487.669 206.5,475C 188.92,460.573 168.586,452.573 145.5,451C 127.512,450.004 109.512,449.171 91.5,448.5C 94.915,444.622 98.915,441.455 103.5,439C 124.241,431.245 145.241,425.079 166.5,420.5 Z"/></g>
<g><path style="opacity:1" fill="#f6f3fa" d="M 316.5,413.5 C 317.78,418.977 318.28,424.644 318,430.5C 316.955,429.627 316.122,428.627 315.5,427.5C 316.289,427.217 316.956,426.717 317.5,426C 316.536,421.934 316.203,417.767 316.5,413.5 Z"/></g>
<g><path style="opacity:1" fill="#f4f1fb" d="M 1079.5,424.5 C 1079.5,433.5 1079.5,442.5 1079.5,451.5C 1059.2,450.091 1038.87,449.091 1018.5,448.5C 1020.36,445.81 1022.69,443.644 1025.5,442C 1042.64,433.385 1060.64,427.552 1079.5,424.5 Z"/></g>
<g><path style="opacity:1" fill="#f4f1fb" d="M -0.5,651.5 C -0.5,643.833 -0.5,636.167 -0.5,628.5C 13.1339,613.017 24.6339,596.017 34,577.5C 56.8037,522.087 48.3037,472.254 8.5,428C 13.622,427.527 18.622,428.194 23.5,430C 43.5858,438.754 58.4191,452.921 68,472.5C 79.2984,500.269 81.6317,528.936 75,558.5C 62.4294,599.887 37.2628,630.887 -0.5,651.5 Z"/></g>
<g><path style="opacity:1" fill="#f4f1fb" d="M 935.5,428.5 C 940.518,427.111 945.518,427.611 950.5,430C 980.376,444.578 998.21,468.411 1004,501.5C 1010.12,542.523 1000.45,579.19 975,611.5C 955.31,635.437 930.81,652.604 901.5,663C 895.554,664.459 889.554,665.126 883.5,665C 926.363,637.351 955.196,599.184 970,550.5C 977.307,518.648 973.307,488.315 958,459.5C 954.081,453.33 950.414,446.997 947,440.5C 943.636,435.971 939.803,431.971 935.5,428.5 Z"/></g>
<g><path style="opacity:1" fill="#f6f4fa" d="M 917.5,437.5 C 916.596,438.209 916.263,439.209 916.5,440.5C 914.765,437.701 913.599,434.701 913,431.5C 914.332,433.66 915.832,435.66 917.5,437.5 Z"/></g>
<g><path style="opacity:1" fill="#f4f1fb" d="M 917.5,437.5 C 925.066,446.954 932.4,456.62 939.5,466.5C 952.322,494.231 952.822,522.231 941,550.5C 922.047,589.863 894.547,622.029 858.5,647C 837.351,659.742 816.351,672.742 795.5,686C 777.892,697.606 763.726,712.44 753,730.5C 751.973,734.608 750.64,738.608 749,742.5C 748.501,747.155 748.334,751.821 748.5,756.5C 748.5,758.167 748.5,759.833 748.5,761.5C 735.661,747.055 730.827,730.055 734,710.5C 735.914,703.339 738.914,696.672 743,690.5C 748.527,683.64 754.694,677.473 761.5,672C 787.132,654.179 813.132,636.846 839.5,620C 866.118,602.382 887.618,579.882 904,552.5C 918.894,525.833 925.228,497.167 923,466.5C 922.08,457.486 919.913,448.819 916.5,440.5C 916.263,439.209 916.596,438.209 917.5,437.5 Z"/></g>
<g><path style="opacity:1" fill="#f7f5fb" d="M 888.5,444.5 C 887.075,442.969 886.409,443.302 886.5,445.5C 883.627,434.42 884.293,434.086 888.5,444.5 Z"/></g>
<g><path style="opacity:1" fill="#f4f1fb" d="M 888.5,444.5 C 894.23,458.556 896.397,473.223 895,488.5C 890.36,521.948 875.86,550.281 851.5,573.5C 812.718,606.04 772.385,636.373 730.5,664.5C 699.065,689.456 682.732,722.123 681.5,762.5C 680.833,762.167 680.167,761.833 679.5,761.5C 675.687,741.363 674.52,721.029 676,700.5C 678.395,684.046 684.395,669.046 694,655.5C 708.194,636.466 724.028,618.8 741.5,602.5C 776.718,572.109 812.051,541.942 847.5,512C 864.343,497.508 876.843,480.008 885,459.5C 886.122,454.898 886.622,450.232 886.5,445.5C 886.409,443.302 887.075,442.969 888.5,444.5 Z"/></g>
<g><path style="opacity:1" fill="#f4f1fb" d="M -0.5,449.5 C 9.80202,460.324 16.9687,472.991 21,487.5C 25.5553,520.275 18.3886,549.942 -0.5,576.5C -0.5,534.167 -0.5,491.833 -0.5,449.5 Z"/></g>
<g><path style="opacity:1" fill="#f4f1fb" d="M 287.5,541.5 C 289.735,541.205 291.735,541.539 293.5,542.5C 261.907,566.397 227.241,571.897 189.5,559C 177.963,553.794 168.13,546.294 160,536.5C 146.365,517.847 131.531,500.014 115.5,483C 109.776,478.139 103.443,474.306 96.5,471.5C 96.8333,470.833 97.1667,470.167 97.5,469.5C 109.866,468.164 122.199,468.331 134.5,470C 145.97,474.564 156.303,480.897 165.5,489C 176.896,501.065 188.896,512.398 201.5,523C 227.471,540.82 256.137,546.987 287.5,541.5 Z"/></g>
<g><path style="opacity:1" fill="#f4f1fb" d="M 1079.5,478.5 C 1079.5,494.5 1079.5,510.5 1079.5,526.5C 1067.87,512.126 1055.87,497.959 1043.5,484C 1036.7,478.547 1029.37,473.88 1021.5,470C 1033.48,468.81 1045.48,468.477 1057.5,469C 1065.27,471.388 1072.6,474.555 1079.5,478.5 Z"/></g>
<g><path style="opacity:1" fill="#f7f4fb" d="M 97.5,469.5 C 97.1667,470.167 96.8333,470.833 96.5,471.5C 90.0157,470.034 90.349,469.367 97.5,469.5 Z"/></g>
<g><path style="opacity:1" fill="#f7f4fc" d="M 519.5,506.5 C 518.167,506.5 517.5,507.167 517.5,508.5C 514.609,506.916 511.609,505.416 508.5,504C 512.43,503.927 516.097,504.76 519.5,506.5 Z"/></g>
<g><path style="opacity:1" fill="#f4f1fb" d="M 645.5,645.5 C 648.228,645.829 650.562,645.163 652.5,643.5C 662.148,640.563 671.315,636.563 680,631.5C 680.5,631.667 681,631.833 681.5,632C 658.8,661.361 628.966,677.861 592,681.5C 572.731,681.225 554.897,676.058 538.5,666C 522.779,655.788 508.113,644.121 494.5,631C 476.139,611.973 457.806,592.973 439.5,574C 416.872,557.674 391.538,551.008 363.5,554C 346.56,556.2 330.227,560.2 314.5,566C 339.823,538.489 371.156,527.155 408.5,532C 431.622,533.421 451.622,541.921 468.5,557.5C 484.521,572.588 499.854,588.255 514.5,604.5C 539.806,625.818 568.806,639.651 601.5,646C 616.216,648.137 630.883,647.971 645.5,645.5 Z"/></g>
<g><path style="opacity:1" fill="#f7f4fb" d="M 1038.5,541.5 C 1037.88,541.389 1037.38,541.056 1037,540.5C 1036.51,541.793 1036.34,543.127 1036.5,544.5C 1035.26,541.367 1034.76,538.033 1035,534.5C 1036.7,536.577 1037.87,538.91 1038.5,541.5 Z"/></g>
<g><path style="opacity:1" fill="#f4f1fb" d="M -0.5,721.5 C -0.5,709.5 -0.5,697.5 -0.5,685.5C 5.83721,683.108 12.1705,680.608 18.5,678C 60.694,654.404 89.8607,619.904 106,574.5C 109.309,561.98 110.309,549.314 109,536.5C 110.522,538.741 111.855,541.074 113,543.5C 132.523,598.592 120.023,644.759 75.5,682C 51.9283,698.619 26.595,711.785 -0.5,721.5 Z"/></g>
<g><path style="opacity:1" fill="#f8f5fc" d="M 287.5,541.5 C 290.304,540.362 293.304,540.195 296.5,541C 295.473,541.513 294.473,542.013 293.5,542.5C 291.735,541.539 289.735,541.205 287.5,541.5 Z"/></g>
<g><path style="opacity:1" fill="#f4f1fb" d="M 1038.5,541.5 C 1058.99,591.909 1049.99,636.075 1011.5,674C 1003.73,681.101 995.401,687.434 986.5,693C 977.081,697.268 968.081,702.268 959.5,708C 929.374,720.469 899.04,732.802 868.5,745C 845.228,755.895 824.395,770.395 806,788.5C 795.714,799.42 787.714,811.754 782,825.5C 785.572,770.942 812.072,732.109 861.5,709C 889.791,699.589 917.791,689.255 945.5,678C 991.882,652.134 1021.88,613.634 1035.5,562.5C 1036.31,556.526 1036.64,550.526 1036.5,544.5C 1036.34,543.127 1036.51,541.793 1037,540.5C 1037.38,541.056 1037.88,541.389 1038.5,541.5 Z"/></g>
<g><path style="opacity:1" fill="#f4f1fb" d="M 358.5,574.5 C 380.28,572.411 399.947,577.578 417.5,590C 426.6,597.097 435.1,604.931 443,613.5C 457.042,632.546 472.875,650.046 490.5,666C 516.431,686.991 546.098,699.658 579.5,704C 592.538,704.853 605.538,704.52 618.5,703C 620.977,700.293 623.977,698.959 627.5,699C 612.442,714.254 594.108,722.587 572.5,724C 521.894,729.251 480.06,712.751 447,674.5C 431.912,655.755 417.245,636.755 403,617.5C 391.384,604.546 378.551,593.046 364.5,583C 359.089,579.257 353.089,577.59 346.5,578C 350.434,576.33 354.434,575.163 358.5,574.5 Z"/></g>
<g><path style="opacity:1" fill="#f4f1fb" d="M 1079.5,592.5 C 1079.5,623.833 1079.5,655.167 1079.5,686.5C 1054.27,725.567 1019.27,751.4 974.5,764C 952.604,767.924 930.938,772.59 909.5,778C 900.777,781.988 892.443,786.321 884.5,791C 892.829,777.672 903.829,767.005 917.5,759C 937.205,748.988 957.539,740.321 978.5,733C 986.782,728.8 995.115,724.8 1003.5,721C 1036.86,701.497 1059.69,673.33 1072,636.5C 1074.43,624.956 1075.1,613.289 1074,601.5C 1072.03,593.597 1069.7,585.931 1067,578.5C 1071.06,583.387 1075.23,588.053 1079.5,592.5 Z"/></g>
<g><path style="opacity:1" fill="#f4f1fb" d="M -0.5,773.5 C -0.5,767.167 -0.5,760.833 -0.5,754.5C 24.8424,744.155 49.8424,733.321 74.5,722C 93.4159,711.42 109.583,697.587 123,680.5C 139.932,658.036 148.266,632.702 148,604.5C 145.927,595.51 143.26,586.843 140,578.5C 145,584.167 150,589.833 155,595.5C 163.332,607.259 167.165,620.426 166.5,635C 165.038,662.395 155.538,686.561 138,707.5C 118.275,730.116 94.4419,746.949 66.5,758C 44.6484,765.241 22.3151,770.408 -0.5,773.5 Z"/></g>
<g><path style="opacity:1" fill="#f4f1fb" d="M 279.5,592.5 C 320.619,590.735 353.952,605.735 379.5,637.5C 389.834,652.167 399.668,667.167 409,682.5C 421.81,701.224 437.81,716.558 457,728.5C 476.876,739.174 498.042,743.008 520.5,740C 492.875,763.791 462.208,768.457 428.5,754C 419.445,749.127 411.279,742.96 404,735.5C 399.667,730.167 395.333,724.833 391,719.5C 375.523,693.352 357.023,669.519 335.5,648C 309.411,626.653 279.744,619.653 246.5,627C 227.513,631.238 209.513,637.904 192.5,647C 191.5,647.667 190.5,647.667 189.5,647C 211.054,614.729 241.054,596.563 279.5,592.5 Z"/></g>
<g><path style="opacity:1" fill="#f6f3fa" d="M 652.5,643.5 C 650.562,645.163 648.228,645.829 645.5,645.5C 647.599,644.388 649.933,643.721 652.5,643.5 Z"/></g>
<g><path style="opacity:1" fill="#f5f2fa" d="M 261.5,666.5 C 259.517,666.157 258.183,666.824 257.5,668.5C 255.407,667.955 253.407,667.122 251.5,666C 255.027,665.192 258.36,665.359 261.5,666.5 Z"/></g>
<g><path style="opacity:1" fill="#f4f1fb" d="M 261.5,666.5 C 308.238,676.076 338.071,703.742 351,749.5C 356.506,773.192 355.173,796.525 347,819.5C 343.111,828.278 338.945,836.945 334.5,845.5C 316.356,872.788 296.523,898.788 275,923.5C 269.667,931.5 264.333,939.5 259,947.5C 255.137,956.754 251.471,966.088 248,975.5C 246.137,982.709 245.137,990.043 245,997.5C 240.197,987.954 237.697,977.787 237.5,967C 238.12,960.325 238.786,953.659 239.5,947C 242.188,938.456 245.021,929.956 248,921.5C 258.614,901.901 269.614,882.568 281,863.5C 291.54,844.745 300.206,825.079 307,804.5C 313.288,782.981 313.954,761.314 309,739.5C 298.989,714.147 284.156,691.98 264.5,673C 262.138,671.489 259.805,669.989 257.5,668.5C 258.183,666.824 259.517,666.157 261.5,666.5 Z"/></g>
<g><path style="opacity:1" fill="#f4f1fb" d="M 188.5,685.5 C 189.167,690.833 189.833,696.167 190.5,701.5C 197.34,755.743 174.673,789.909 122.5,804C 92.2449,810.238 63.9115,805.571 37.5,790C 60.0762,790.273 81.7428,785.94 102.5,777C 127.76,765.948 149.593,750.114 168,729.5C 178.354,716.46 185.187,701.793 188.5,685.5 Z"/></g>
<g><path style="opacity:1" fill="#f5f2f9" d="M 190.5,701.5 C 189.833,696.167 189.167,690.833 188.5,685.5C 188.351,684.448 188.517,683.448 189,682.5C 189.333,682.833 189.667,683.167 190,683.5C 190.499,689.491 190.666,695.491 190.5,701.5 Z"/></g>
<g><path style="opacity:1" fill="#f4f1fb" d="M 260.5,797.5 C 259.205,801.267 258.539,805.267 258.5,809.5C 253.565,833.348 246.065,856.348 236,878.5C 224.908,899.019 214.575,920.019 205,941.5C 202.297,951.244 199.297,960.911 196,970.5C 193.677,980.487 192.01,990.487 191,1000.5C 185.051,988.917 181.717,976.583 181,963.5C 180.551,940.72 183.551,918.386 190,896.5C 198.971,869.261 207.305,841.927 215,814.5C 218.049,800.253 220.716,785.92 223,771.5C 223.667,757.833 223.667,744.167 223,730.5C 222.007,720.035 219.84,709.868 216.5,700C 217.5,699.333 218.5,699.333 219.5,700C 244.094,716.491 257.927,739.658 261,769.5C 261.721,778.861 261.554,788.194 260.5,797.5 Z"/></g>
<g><path style="opacity:1" fill="#f4f1fb" d="M 1079.5,745.5 C 1079.5,761.167 1079.5,776.833 1079.5,792.5C 1040.75,811.766 1002.42,810.933 964.5,790C 976.556,789.661 988.556,788.661 1000.5,787C 1029.69,778.659 1056.02,764.826 1079.5,745.5 Z"/></g>
<g><path style="opacity:1" fill="#f4f1fb" d="M 605.5,756.5 C 606.043,756.56 606.376,756.893 606.5,757.5C 591.281,777.219 573.948,794.719 554.5,810C 537.918,820.216 520.251,828.549 501.5,835C 476.705,841.782 451.705,848.116 426.5,854C 400.41,860.844 376.743,872.344 355.5,888.5C 354.018,890.483 352.351,892.316 350.5,894C 349.668,894.688 349.002,894.521 348.5,893.5C 358.984,873.206 371.484,854.206 386,836.5C 405.667,815.102 429.167,799.935 456.5,791C 488.898,782.1 521.898,776.767 555.5,775C 569.058,773.594 582.058,770.26 594.5,765C 598.235,762.147 601.902,759.313 605.5,756.5 Z"/></g>
<g><path style="opacity:1" fill="#f7f4fb" d="M 748.5,756.5 C 749.365,759.418 750.365,762.418 751.5,765.5C 751.154,766.696 750.654,766.696 750,765.5C 749.209,764.255 748.709,762.922 748.5,761.5C 748.5,759.833 748.5,758.167 748.5,756.5 Z"/></g>
<g><path style="opacity:1" fill="#f4f1fb" d="M 589.5,1056.5 C 593.5,1055.83 597.5,1055.17 601.5,1054.5C 611.725,1053.12 621.392,1049.96 630.5,1045C 691.635,1007.93 726.468,953.764 735,882.5C 735.667,865.833 735.667,849.167 735,832.5C 730.508,808.523 724.508,785.19 717,762.5C 730.225,774.323 741.558,787.656 751,802.5C 764.322,830.439 770.488,859.939 769.5,891C 771.097,930.59 761.764,967.09 741.5,1000.5C 717.134,1036.05 683.801,1057.55 641.5,1065C 623.023,1067.86 605.689,1065.03 589.5,1056.5 Z"/></g>
<g><path style="opacity:1" fill="#f8f6fc" d="M 679.5,761.5 C 680.167,761.833 680.833,762.167 681.5,762.5C 682.596,766.413 682.762,770.413 682,774.5C 680.847,770.213 680.013,765.879 679.5,761.5 Z"/></g>
<g><path style="opacity:1" fill="#f4f1fb" d="M 284.5,1079.5 C 279.5,1079.5 274.5,1079.5 269.5,1079.5C 269.42,1003.12 303.753,948.624 372.5,916C 390.102,908.573 408.102,901.907 426.5,896C 458.189,887.659 489.189,877.326 519.5,865C 563.941,844.071 599.608,812.904 626.5,771.5C 626.833,771.833 627.167,772.167 627.5,772.5C 615.806,802.696 598.972,829.696 577,853.5C 549.545,879.758 519.045,902.925 485.5,923C 455.104,939.702 424.437,956.036 393.5,972C 377.463,982.004 361.463,992.004 345.5,1002C 318.512,1022.8 298.179,1048.63 284.5,1079.5 Z"/></g>
<g><path style="opacity:1" fill="#f4f1fb" d="M 310.5,1079.5 C 307.167,1079.5 303.833,1079.5 300.5,1079.5C 323.982,1058.09 348.982,1038.59 375.5,1021C 420.477,992.323 466.143,964.99 512.5,939C 574.297,899.821 618.463,846.321 645,778.5C 644.795,803.315 642.795,827.981 639,852.5C 635.768,872.108 629.768,890.775 621,908.5C 607.638,932.01 590.805,952.843 570.5,971C 536.172,999.666 497.839,1021.33 455.5,1036C 407.51,1051.83 359.177,1066.33 310.5,1079.5 Z"/></g>
<g><path style="opacity:1" fill="#f7f5fb" d="M 260.5,797.5 C 260.656,801.764 259.989,805.764 258.5,809.5C 258.539,805.267 259.205,801.267 260.5,797.5 Z"/></g>
<g><path style="opacity:1" fill="#f4f1fb" d="M 698.5,812.5 C 705.988,851.241 704.822,889.908 695,928.5C 685.383,959.278 668.217,984.778 643.5,1005C 630.256,1013.64 615.923,1019.98 600.5,1024C 578.949,1028.98 557.283,1032.98 535.5,1036C 555.484,1024.34 574.817,1011.67 593.5,998C 651.361,949.393 686.361,887.56 698.5,812.5 Z"/></g>
<g><path style="opacity:1" fill="#f4f1fb" d="M -0.5,815.5 C 6.8409,815.334 14.1742,815.5 21.5,816C 43.0323,821.772 64.3657,828.106 85.5,835C 107.957,839.971 130.291,839.638 152.5,834C 163.038,830.065 173.038,825.398 182.5,820C 180.46,823.914 178.293,827.748 176,831.5C 163.338,845.416 147.838,854.583 129.5,859C 101.218,862.063 73.218,860.396 45.5,854C 30.1703,853.5 14.837,853.333 -0.5,853.5C -0.5,840.833 -0.5,828.167 -0.5,815.5 Z"/></g>
<g><path style="opacity:1" fill="#f4f1fb" d="M 1079.5,834.5 C 1079.5,840.167 1079.5,845.833 1079.5,851.5C 1073.09,853.359 1066.76,855.526 1060.5,858C 1050.59,860.015 1040.59,861.182 1030.5,861.5C 1010.59,860.843 990.923,858.343 971.5,854C 943.833,853.333 916.167,853.333 888.5,854C 862.179,861.317 837.846,872.65 815.5,888C 814.517,888.591 813.85,888.257 813.5,887C 814.39,883.785 815.723,880.785 817.5,878C 824.649,868.684 831.983,859.518 839.5,850.5C 849.415,839.089 861.415,830.589 875.5,825C 902.624,815.984 930.291,813.65 958.5,818C 973.707,823.18 989.04,828.18 1004.5,833C 1029.39,839.674 1054.39,840.174 1079.5,834.5 Z"/></g>
<g><path style="opacity:1" fill="#f4f1fb" d="M -0.5,875.5 C 14.8644,878.152 30.1978,881.319 45.5,885C 61.5567,887.225 77.5567,886.892 93.5,884C 101.074,882.011 108.408,879.678 115.5,877C 113.205,880.297 110.538,883.297 107.5,886C 90.3795,899.846 70.7129,907.512 48.5,909C 32.1701,909.5 15.8367,909.667 -0.5,909.5C -0.5,898.167 -0.5,886.833 -0.5,875.5 Z"/></g>
<g><path style="opacity:1" fill="#f4f1fb" d="M 899.5,875.5 C 910.172,875.333 920.839,875.5 931.5,876C 952.099,881.492 973.099,884.992 994.5,886.5C 1005.26,886.143 1015.92,884.977 1026.5,883C 1031.28,880.517 1036.28,878.85 1041.5,878C 1029.93,891.292 1015.59,900.292 998.5,905C 990.917,906.798 983.25,908.131 975.5,909C 959.833,909.667 944.167,909.667 928.5,909C 907.527,906.418 886.527,906.084 865.5,908C 844.494,911.256 825.994,919.756 810,933.5C 812.808,925.569 816.974,918.236 822.5,911.5C 844.287,891.105 869.953,879.105 899.5,875.5 Z"/></g>
<g><path style="opacity:1" fill="#f4f1fb" d="M -0.5,957.5 C -0.5,947.833 -0.5,938.167 -0.5,928.5C 21.1899,928.833 42.8565,928.333 64.5,927C 94.7775,924.588 123.111,916.088 149.5,901.5C 159.236,894.931 167.069,886.598 173,876.5C 173.637,894.275 167.137,908.775 153.5,920C 138.462,929.657 122.295,937.157 105,942.5C 70.3458,950.812 35.1791,955.812 -0.5,957.5 Z"/></g>
<g><path style="opacity:1" fill="#f4f1fb" d="M 1079.5,899.5 C 1079.5,906.5 1079.5,913.5 1079.5,920.5C 1074.63,923.869 1069.63,927.035 1064.5,930C 1038.75,941.692 1011.75,949.025 983.5,952C 953.435,954.806 923.435,958.14 893.5,962C 868.808,965.687 845.475,973.354 823.5,985C 813.583,989.579 804.749,995.746 797,1003.5C 814.819,957.406 848.653,932.572 898.5,929C 926.833,928.667 955.167,928.333 983.5,928C 1018.5,926.556 1050.5,917.056 1079.5,899.5 Z"/></g>
<g><path style="opacity:1" fill="#f4f1fb" d="M -0.5,1042.5 C -0.5,1026.17 -0.5,1009.83 -0.5,993.5C 13.6926,986.074 28.6926,980.908 44.5,978C 67.8472,975.399 91.1805,973.065 114.5,971C 81.0533,992.393 47.0533,1013.06 12.5,1033C 8.56901,1036.77 4.23568,1039.94 -0.5,1042.5 Z"/></g>
<g><path style="opacity:1" fill="#f4f1fb" d="M 890.5,1079.5 C 875.833,1079.5 861.167,1079.5 846.5,1079.5C 847.031,1076.76 847.864,1074.1 849,1071.5C 874.282,1023.55 913.115,992.713 965.5,979C 990.714,975.022 1016.05,972.355 1041.5,971C 1004.83,993.676 968.161,1016.34 931.5,1039C 915.998,1050.67 902.332,1064.17 890.5,1079.5 Z"/></g>
<g><path style="opacity:1" fill="#f4f1fb" d="M 116.5,1079.5 C 78.5,1079.5 40.5,1079.5 2.5,1079.5C 10.129,1069.71 19.4623,1061.88 30.5,1056C 53.9948,1043.41 77.6615,1031.41 101.5,1020C 108.167,1015.67 114.833,1011.33 121.5,1007C 133.397,998.271 143.397,987.771 151.5,975.5C 149.024,1013.26 137.357,1047.93 116.5,1079.5 Z"/></g>
<g><path style="opacity:1" fill="#fdfbfe" d="M 1079.5,979.5 C 1079.5,1012.83 1079.5,1046.17 1079.5,1079.5C 1067.5,1079.5 1055.5,1079.5 1043.5,1079.5C 1057.7,1059.11 1067.53,1036.77 1073,1012.5C 1074.75,1001.27 1076.91,990.271 1079.5,979.5 Z"/></g>
<g><path style="opacity:1" fill="#f4f1fb" d="M 1079.5,973.5 C 1079.5,975.5 1079.5,977.5 1079.5,979.5C 1076.91,990.271 1074.75,1001.27 1073,1012.5C 1067.53,1036.77 1057.7,1059.11 1043.5,1079.5C 1005.5,1079.5 967.5,1079.5 929.5,1079.5C 929.369,1078.76 929.536,1078.09 930,1077.5C 934.03,1073.56 938.197,1069.73 942.5,1066C 964.178,1051.33 987.178,1038.99 1011.5,1029C 1031.29,1019.69 1049.13,1007.52 1065,992.5C 1070.46,986.551 1075.3,980.217 1079.5,973.5 Z"/></g>
<g><path style="opacity:1" fill="#f4f1fb" d="M 805.5,1079.5 C 793.5,1079.5 781.5,1079.5 769.5,1079.5C 777.675,1059.14 790.342,1041.97 807.5,1028C 829.683,1013.49 853.683,1003.16 879.5,997C 859.596,1009.23 841.763,1024.06 826,1041.5C 817.184,1053.13 810.351,1065.8 805.5,1079.5 Z"/></g>
<g><path style="opacity:1" fill="#f4f1fb" d="M 222.5,1019.5 C 231.58,1038.48 237.246,1058.48 239.5,1079.5C 232.167,1079.5 224.833,1079.5 217.5,1079.5C 220.904,1063.36 222.237,1047.03 221.5,1030.5C 221.185,1026.63 221.518,1022.96 222.5,1019.5 Z"/></g>
<g><path style="opacity:1" fill="#faf7fd" d="M 222.5,1019.5 C 221.518,1022.96 221.185,1026.63 221.5,1030.5C 220.352,1026.02 220.185,1021.35 221,1016.5C 222.039,1017.24 222.539,1018.24 222.5,1019.5 Z"/></g>
<g><path style="opacity:1" fill="#f7f4fa" d="M 768.5,1049.5 C 767.833,1049.5 767.167,1049.5 766.5,1049.5C 768.317,1047.16 770.65,1045.99 773.5,1046C 771.677,1047 770.01,1048.16 768.5,1049.5 Z"/></g>
<g><path style="opacity:1" fill="#f4f1fb" d="M 188.5,1079.5 C 182.167,1079.5 175.833,1079.5 169.5,1079.5C 175.752,1070 181.752,1060.33 187.5,1050.5C 188.498,1060.14 188.832,1069.81 188.5,1079.5 Z"/></g>
<g><path style="opacity:1" fill="#f4f1fb" d="M 766.5,1049.5 C 767.167,1049.5 767.833,1049.5 768.5,1049.5C 760.532,1056.64 753.032,1064.3 746,1072.5C 744.277,1074.72 742.777,1077.05 741.5,1079.5C 734.5,1079.5 727.5,1079.5 720.5,1079.5C 735.018,1068.33 750.352,1058.33 766.5,1049.5 Z"/></g>
<g><path style="opacity:1" fill="#f9f6fd" d="M 601.5,1054.5 C 597.5,1055.17 593.5,1055.83 589.5,1056.5C 588.527,1056.01 587.527,1055.51 586.5,1055C 591.489,1054.5 596.489,1054.33 601.5,1054.5 Z"/></g>
<g><path style="opacity:1" fill="#f4f1fb" d="M 554.5,1079.5 C 548.833,1079.5 543.167,1079.5 537.5,1079.5C 545.173,1072.99 552.006,1065.66 558,1057.5C 557.484,1064.91 556.318,1072.24 554.5,1079.5 Z"/></g>
<g><path style="opacity:1" fill="#f5f2fb" d="M 709.5,1079.5 C 701.167,1079.5 692.833,1079.5 684.5,1079.5C 689.233,1077.95 694.233,1077.29 699.5,1077.5C 703.167,1077.67 706.833,1077.83 710.5,1078C 709.944,1078.38 709.611,1078.88 709.5,1079.5 Z"/></g>
</svg>
